<svg preserveAspectRatio="none" width="100%" height="100%" overflow="visible" style="display: block;" viewBox="0 0 18.8364 23.31" fill="none" xmlns="http://www.w3.org/2000/svg">
<g id="94.10w" filter="url(#filter0_d_0_23)">
<path d="M1.87 4.25C1.87 4.22333 1.88 4.2 1.9 4.18C1.92667 4.15333 1.95667 4.14 1.99 4.14H2.53C2.56333 4.14 2.59 4.15333 2.61 4.18C2.63667 4.20667 2.65 4.23667 2.65 4.27L2.34 9.7C2.34 9.72667 2.32667 9.75 2.3 9.77C2.28 9.79667 2.25333 9.81 2.22 9.81H1.59C1.56333 9.81 1.54 9.8 1.52 9.78C1.50667 9.76 1.5 9.73667 1.5 9.71L1.87 4.25ZM1.78 1.86C1.75333 1.86 1.73 1.85 1.71 1.83C1.69 1.80333 1.68 1.77333 1.68 1.74V1.02C1.68 0.953333 1.72 0.913333 1.8 0.9L4.63 0.62H4.65C4.67667 0.62 4.7 0.633333 4.72 0.66C4.74 0.68 4.75 0.706667 4.75 0.74V1.48C4.75 1.53333 4.71333 1.56667 4.64 1.58L3.71 1.67V2.81H4.7C4.73333 2.81 4.76 2.82333 4.78 2.85C4.80667 2.87 4.82 2.89667 4.82 2.93V3.69C4.82 3.72333 4.80667 3.75333 4.78 3.78C4.76 3.8 4.73333 3.81 4.7 3.81H3.71V9.75C3.71 9.78333 3.69667 9.81 3.67 9.83C3.65 9.85667 3.62333 9.87 3.59 9.87H2.88C2.84667 9.87 2.81667 9.85667 2.79 9.83C2.77 9.81 2.76 9.78333 2.76 9.75V3.81H1.71C1.67667 3.81 1.64667 3.8 1.62 3.78C1.6 3.75333 1.59 3.72333 1.59 3.69V2.93C1.59 2.89667 1.6 2.87 1.62 2.85C1.64667 2.82333 1.67667 2.81 1.71 2.81H2.76V1.77L1.8 1.86H1.78ZM4.85 8.44C4.85 8.46667 4.84333 8.49 4.83 8.51C4.81667 8.53 4.79667 8.54 4.77 8.54H4.14C4.10667 8.54 4.07667 8.52667 4.05 8.5C4.03 8.48 4.02 8.45667 4.02 8.43L3.83 4.27C3.83 4.23667 3.84333 4.20667 3.87 4.18C3.89667 4.15333 3.92667 4.14 3.96 4.14H4.49C4.52333 4.14 4.55 4.15 4.57 4.17C4.59 4.19 4.6 4.21667 4.6 4.25L4.85 8.44ZM8.94 0.76C8.97333 0.76 9 0.773333 9.02 0.8C9.04667 0.82 9.06 0.846667 9.06 0.88V6.08C9.06 6.11333 9.04667 6.14333 9.02 6.17C9 6.19 8.97333 6.2 8.94 6.2H5.21C5.17667 6.2 5.14667 6.19 5.12 6.17C5.1 6.14333 5.09 6.11333 5.09 6.08V0.88C5.09 0.846667 5.1 0.82 5.12 0.8C5.14667 0.773333 5.17667 0.76 5.21 0.76H8.94ZM6.6 6.57C6.63333 6.57 6.66 6.58333 6.68 6.61C6.7 6.63667 6.70667 6.66667 6.7 6.7L5.75 9.69C5.74333 9.73 5.72333 9.76 5.69 9.78C5.66333 9.8 5.63 9.81 5.59 9.81H4.79C4.75 9.81 4.72 9.79667 4.7 9.77C4.68 9.75 4.67667 9.72 4.69 9.68L5.68 6.69C5.68667 6.65667 5.70667 6.63 5.74 6.61C5.77333 6.58333 5.80667 6.57 5.84 6.57H6.6ZM8.29 6.57C8.32333 6.57 8.35667 6.58333 8.39 6.61C8.42333 6.63 8.44333 6.65667 8.45 6.69L9.44 9.68C9.44667 9.68667 9.45 9.7 9.45 9.72C9.45 9.78 9.41333 9.81 9.34 9.81H8.54C8.5 9.81 8.46333 9.8 8.43 9.78C8.40333 9.76 8.38667 9.73 8.38 9.69L7.43 6.7V6.67C7.43 6.60333 7.46333 6.57 7.53 6.57H8.29ZM8.08 5.22V1.74H6.07V5.22H8.08Z" fill="var(--fill-0, #14151A)"/>
<path d="M15.0839 0.67C15.0772 0.656666 15.0739 0.636666 15.0739 0.61C15.0739 0.576666 15.0839 0.55 15.1039 0.53C15.1239 0.51 15.1506 0.5 15.1839 0.5H16.1239C16.1439 0.5 16.1672 0.506667 16.1939 0.52C16.2206 0.533333 16.2372 0.55 16.2439 0.57L18.2139 4.2C18.2206 4.22 18.2272 4.24333 18.2339 4.27C18.2339 4.33667 18.1972 4.37 18.1239 4.37H17.2739V9.51C17.2739 9.59667 17.2439 9.66667 17.1839 9.72C17.1306 9.78 17.0606 9.81 16.9739 9.81H14.9139C14.7539 9.81 14.6306 9.76 14.5439 9.66L13.7639 8.8C13.7372 8.77333 13.7239 8.74667 13.7239 8.72C13.7239 8.67333 13.7606 8.65 13.8339 8.65H15.0239C15.0906 8.65 15.1239 8.68333 15.1239 8.75V8.76C15.1239 8.82 15.1606 8.85 15.2339 8.85H16.2239V5.1H14.0139L12.4039 9.72C12.3772 9.78 12.3339 9.81 12.2739 9.81H11.3139C11.2806 9.81 11.2539 9.79333 11.2339 9.76C11.2139 9.73333 11.2072 9.70333 11.2139 9.67L12.8539 5.1H11.5439C11.5106 5.1 11.4806 5.09 11.4539 5.07C11.4339 5.04333 11.4239 5.01333 11.4239 4.98V4.37H10.7139C10.6672 4.37 10.6306 4.35333 10.6039 4.32C10.5839 4.28667 10.5872 4.24667 10.6139 4.2L12.6539 0.56C12.6739 0.52 12.7139 0.5 12.7739 0.5H13.7239C13.7706 0.5 13.8006 0.52 13.8139 0.56C13.8339 0.593333 13.8339 0.63 13.8139 0.67L11.9439 4.14H16.9139L15.0839 0.67Z" fill="var(--fill-0, #14151A)"/>
<path d="M4.87 12.62C4.87 12.5867 4.88 12.56 4.9 12.54C4.92667 12.5133 4.95667 12.5 4.99 12.5H5.83C5.86333 12.5 5.89 12.5133 5.91 12.54C5.93667 12.56 5.95 12.5867 5.95 12.62V13.53H8.81C8.84333 13.53 8.87 13.5433 8.89 13.57C8.91667 13.59 8.93 13.6167 8.93 13.65V19.88C8.93 19.9133 8.91667 19.9433 8.89 19.97C8.87 19.99 8.84333 20 8.81 20H5.95V21.69C5.95 21.7233 5.93667 21.75 5.91 21.77C5.89 21.7967 5.86333 21.81 5.83 21.81H4.99C4.95667 21.81 4.92667 21.7967 4.9 21.77C4.88 21.75 4.87 21.7233 4.87 21.69V20H2.01C1.97667 20 1.94667 19.99 1.92 19.97C1.9 19.9433 1.89 19.9133 1.89 19.88V13.65C1.89 13.6167 1.9 13.59 1.92 13.57C1.94667 13.5433 1.97667 13.53 2.01 13.53H4.87V12.62ZM4.87 18.95V14.58H2.94V18.95H4.87ZM7.88 18.95V14.58H5.95V18.95H7.88Z" fill="var(--fill-0, #14151A)"/>
<path d="M16.5639 14.16C16.5839 14.1333 16.6106 14.12 16.6439 14.12H17.3539C17.3872 14.12 17.4206 14.1333 17.4539 14.16C17.4872 14.1867 17.5072 14.2167 17.5139 14.25L18.3339 20.67C18.3406 20.6967 18.3339 20.72 18.3139 20.74C18.2939 20.7667 18.2672 20.78 18.2339 20.78H17.5239C17.4839 20.78 17.4472 20.7667 17.4139 20.74C17.3872 20.7133 17.3706 20.6833 17.3639 20.65L16.5439 14.23C16.5372 14.2033 16.5439 14.18 16.5639 14.16ZM14.2439 12.54C14.2639 12.5133 14.2906 12.5 14.3239 12.5H15.0739C15.1072 12.5 15.1372 12.5133 15.1639 12.54C15.1972 12.56 15.2172 12.5867 15.2239 12.62L15.8239 17.58C15.8306 17.6133 15.8239 17.64 15.8039 17.66C15.7839 17.68 15.7606 17.69 15.7339 17.69H14.9739C14.9406 17.69 14.9072 17.6767 14.8739 17.65C14.8472 17.6233 14.8306 17.5933 14.8239 17.56L14.2239 12.61C14.2172 12.5833 14.2239 12.56 14.2439 12.54ZM12.6639 21.71C12.6039 21.65 12.5739 21.5767 12.5739 21.49V13.31C12.5739 13.2233 12.6172 13.18 12.7039 13.18H13.4539C13.4872 13.18 13.5139 13.1933 13.5339 13.22C13.5606 13.24 13.5739 13.27 13.5739 13.31V20.75H15.5539C15.6339 20.75 15.6739 20.72 15.6739 20.66V20.65C15.6739 20.6167 15.6839 20.59 15.7039 20.57C15.7239 20.55 15.7506 20.54 15.7839 20.54H17.0339C17.1072 20.54 17.1439 20.5633 17.1439 20.61C17.1439 20.6433 17.1306 20.6733 17.1039 20.7L16.3339 21.65C16.2539 21.7567 16.1272 21.81 15.9539 21.81H12.8839C12.7972 21.81 12.7239 21.7767 12.6639 21.71ZM10.5339 20.69V20.67L11.2139 14.3C11.2206 14.26 11.2372 14.23 11.2639 14.21C11.2906 14.1833 11.3239 14.17 11.3639 14.17H12.0839C12.1106 14.17 12.1339 14.18 12.1539 14.2C12.1739 14.2133 12.1839 14.2333 12.1839 14.26V14.28L11.5139 20.65C11.5072 20.6833 11.4906 20.7133 11.4639 20.74C11.4372 20.7667 11.4006 20.78 11.3539 20.78H10.6239C10.5972 20.78 10.5739 20.77 10.5539 20.75C10.5406 20.7367 10.5339 20.7167 10.5339 20.69Z" fill="var(--fill-0, #14151A)"/>
</g>
<defs>
<filter id="filter0_d_0_23" x="0" y="0" width="18.8364" height="23.31" filterUnits="userSpaceOnUse" color-interpolation-filters="sRGB">
<feFlood flood-opacity="0" result="BackgroundImageFix"/>
<feColorMatrix in="SourceAlpha" type="matrix" values="0 0 0 0 0 0 0 0 0 0 0 0 0 0 0 0 0 0 127 0" result="hardAlpha"/>
<feOffset dx="-0.5" dy="0.5"/>
<feGaussianBlur stdDeviation="0.5"/>
<feComposite in2="hardAlpha" operator="out"/>
<feColorMatrix type="matrix" values="0 0 0 0 0 0 0 0 0 0 0 0 0 0 0 0 0 0 0.1 0"/>
<feBlend mode="normal" in2="BackgroundImageFix" result="effect1_dropShadow_0_23"/>
<feBlend mode="normal" in="SourceGraphic" in2="effect1_dropShadow_0_23" result="shape"/>
</filter>
</defs>
</svg>
